<svg width="40" height="40" viewBox="0 0 40 40" fill="none" xmlns="http://www.w3.org/2000/svg">
<path d="M36 0H4C1.79086 0 0 1.91878 0 4.28571C0 6.65265 1.79086 8.57143 4 8.57143H36C38.2091 8.57143 40 6.65265 40 4.28571C40 1.91878 38.2091 0 36 0Z" fill="black"/>
<path d="M36 15.7143H4C1.79086 15.7143 0 17.6331 0 20C0 22.3669 1.79086 24.2857 4 24.2857H36C38.2091 24.2857 40 22.3669 40 20C40 17.6331 38.2091 15.7143 36 15.7143Z" fill="black"/>
<path d="M36 31.4286H4C1.79086 31.4286 0 33.3474 0 35.7143C0 38.0812 1.79086 40 4 40H36C38.2091 40 40 38.0812 40 35.7143C40 33.3474 38.2091 31.4286 36 31.4286Z" fill="black"/>
</svg>
