<svg width="324" height="64" viewBox="0 0 324 64" fill="none" xmlns="http://www.w3.org/2000/svg">
<path d="M85.1016 48.625V60H82.7656V48.625H85.1016ZM88.6016 48.625V50.4609H79.3203V48.625H88.6016ZM91.9922 48V60H89.7422V48H91.9922ZM91.6719 55.4766H91.0547C91.0599 54.888 91.138 54.3464 91.2891 53.8516C91.4401 53.3516 91.6562 52.9193 91.9375 52.5547C92.2188 52.1849 92.5547 51.8984 92.9453 51.6953C93.3411 51.4922 93.7786 51.3906 94.2578 51.3906C94.6745 51.3906 95.0521 51.4505 95.3906 51.5703C95.7344 51.6849 96.0286 51.8724 96.2734 52.1328C96.5234 52.388 96.7161 52.724 96.8516 53.1406C96.987 53.5573 97.0547 54.0625 97.0547 54.6562V60H94.7891V54.6406C94.7891 54.2656 94.7344 53.9714 94.625 53.7578C94.5208 53.5391 94.3672 53.3854 94.1641 53.2969C93.9661 53.2031 93.7214 53.1562 93.4297 53.1562C93.1068 53.1562 92.8307 53.2161 92.6016 53.3359C92.3776 53.4557 92.1979 53.6224 92.0625 53.8359C91.9271 54.0443 91.8281 54.2891 91.7656 54.5703C91.7031 54.8516 91.6719 55.1536 91.6719 55.4766ZM102.656 60.1562C102 60.1562 101.411 60.0521 100.891 59.8438C100.37 59.6302 99.9271 59.3359 99.5625 58.9609C99.2031 58.5859 98.9271 58.151 98.7344 57.6562C98.5417 57.1562 98.4453 56.625 98.4453 56.0625V55.75C98.4453 55.1094 98.5365 54.5234 98.7188 53.9922C98.901 53.4609 99.1615 53 99.5 52.6094C99.8438 52.2188 100.26 51.9193 100.75 51.7109C101.24 51.4974 101.792 51.3906 102.406 51.3906C103.005 51.3906 103.536 51.4896 104 51.6875C104.464 51.8854 104.852 52.1667 105.164 52.5312C105.482 52.8958 105.721 53.3333 105.883 53.8438C106.044 54.349 106.125 54.9115 106.125 55.5312V56.4688H99.4062V54.9688H103.914V54.7969C103.914 54.4844 103.857 54.2057 103.742 53.9609C103.633 53.7109 103.466 53.513 103.242 53.3672C103.018 53.2214 102.732 53.1484 102.383 53.1484C102.086 53.1484 101.831 53.2135 101.617 53.3438C101.404 53.474 101.229 53.6562 101.094 53.8906C100.964 54.125 100.865 54.401 100.797 54.7188C100.734 55.0312 100.703 55.375 100.703 55.75V56.0625C100.703 56.401 100.75 56.7135 100.844 57C100.943 57.2865 101.081 57.5339 101.258 57.7422C101.44 57.9505 101.659 58.112 101.914 58.2266C102.174 58.3411 102.469 58.3984 102.797 58.3984C103.203 58.3984 103.581 58.3203 103.93 58.1641C104.284 58.0026 104.589 57.7604 104.844 57.4375L105.938 58.625C105.76 58.8802 105.518 59.125 105.211 59.3594C104.909 59.5938 104.544 59.7865 104.117 59.9375C103.69 60.0833 103.203 60.1562 102.656 60.1562ZM111.031 55.8594V55.6953C111.031 55.0755 111.12 54.5052 111.297 53.9844C111.474 53.4583 111.732 53.0026 112.07 52.6172C112.409 52.2318 112.826 51.9323 113.32 51.7188C113.815 51.5 114.383 51.3906 115.023 51.3906C115.664 51.3906 116.234 51.5 116.734 51.7188C117.234 51.9323 117.654 52.2318 117.992 52.6172C118.336 53.0026 118.596 53.4583 118.773 53.9844C118.951 54.5052 119.039 55.0755 119.039 55.6953V55.8594C119.039 56.474 118.951 57.0443 118.773 57.5703C118.596 58.0911 118.336 58.5469 117.992 58.9375C117.654 59.3229 117.237 59.6224 116.742 59.8359C116.247 60.0495 115.68 60.1562 115.039 60.1562C114.398 60.1562 113.828 60.0495 113.328 59.8359C112.833 59.6224 112.414 59.3229 112.07 58.9375C111.732 58.5469 111.474 58.0911 111.297 57.5703C111.12 57.0443 111.031 56.474 111.031 55.8594ZM113.281 55.6953V55.8594C113.281 56.2135 113.312 56.5443 113.375 56.8516C113.438 57.1589 113.536 57.4297 113.672 57.6641C113.812 57.8932 113.995 58.0729 114.219 58.2031C114.443 58.3333 114.716 58.3984 115.039 58.3984C115.352 58.3984 115.62 58.3333 115.844 58.2031C116.068 58.0729 116.247 57.8932 116.383 57.6641C116.518 57.4297 116.617 57.1589 116.68 56.8516C116.747 56.5443 116.781 56.2135 116.781 55.8594V55.6953C116.781 55.3516 116.747 55.0286 116.68 54.7266C116.617 54.4193 116.516 54.1484 116.375 53.9141C116.24 53.6745 116.06 53.487 115.836 53.3516C115.612 53.2161 115.341 53.1484 115.023 53.1484C114.706 53.1484 114.435 53.2161 114.211 53.3516C113.992 53.487 113.812 53.6745 113.672 53.9141C113.536 54.1484 113.438 54.4193 113.375 54.7266C113.312 55.0286 113.281 55.3516 113.281 55.6953ZM122.625 53.3516V60H120.375V51.5469H122.484L122.625 53.3516ZM122.297 55.4766H121.688C121.688 54.8516 121.768 54.2891 121.93 53.7891C122.091 53.2839 122.318 52.8542 122.609 52.5C122.901 52.1406 123.247 51.8672 123.648 51.6797C124.055 51.487 124.508 51.3906 125.008 51.3906C125.404 51.3906 125.766 51.4479 126.094 51.5625C126.422 51.6771 126.703 51.8594 126.938 52.1094C127.177 52.3594 127.359 52.6901 127.484 53.1016C127.615 53.513 127.68 54.0156 127.68 54.6094V60H125.414V54.6016C125.414 54.2266 125.362 53.9349 125.258 53.7266C125.154 53.5182 125 53.3724 124.797 53.2891C124.599 53.2005 124.354 53.1562 124.062 53.1562C123.76 53.1562 123.497 53.2161 123.273 53.3359C123.055 53.4557 122.872 53.6224 122.727 53.8359C122.586 54.0443 122.479 54.2891 122.406 54.5703C122.333 54.8516 122.297 55.1536 122.297 55.4766ZM131.766 48V60H129.508V48H131.766ZM136.133 59.0469L138.375 51.5469H140.789L137.391 61.2734C137.318 61.487 137.219 61.7161 137.094 61.9609C136.974 62.2057 136.81 62.4375 136.602 62.6562C136.398 62.8802 136.141 63.0625 135.828 63.2031C135.521 63.3438 135.143 63.4141 134.695 63.4141C134.482 63.4141 134.307 63.401 134.172 63.375C134.036 63.349 133.875 63.3125 133.688 63.2656V61.6172C133.745 61.6172 133.805 61.6172 133.867 61.6172C133.93 61.6224 133.99 61.625 134.047 61.625C134.344 61.625 134.586 61.5911 134.773 61.5234C134.961 61.4557 135.112 61.3516 135.227 61.2109C135.341 61.0755 135.432 60.8984 135.5 60.6797L136.133 59.0469ZM135.195 51.5469L137.031 57.6719L137.352 60.0547L135.82 60.2188L132.781 51.5469H135.195ZM145.672 48H147.922V58.0625L147.695 60H145.672V48ZM153.273 55.6875V55.8516C153.273 56.4818 153.206 57.0599 153.07 57.5859C152.94 58.112 152.737 58.5677 152.461 58.9531C152.185 59.3333 151.841 59.6302 151.43 59.8438C151.023 60.0521 150.544 60.1562 149.992 60.1562C149.477 60.1562 149.029 60.0521 148.648 59.8438C148.273 59.6354 147.958 59.3411 147.703 58.9609C147.448 58.5807 147.242 58.1354 147.086 57.625C146.93 57.1146 146.812 56.5573 146.734 55.9531V55.5938C146.812 54.9896 146.93 54.4323 147.086 53.9219C147.242 53.4115 147.448 52.9661 147.703 52.5859C147.958 52.2057 148.273 51.9115 148.648 51.7031C149.023 51.4948 149.466 51.3906 149.977 51.3906C150.534 51.3906 151.018 51.4974 151.43 51.7109C151.846 51.9193 152.19 52.2161 152.461 52.6016C152.737 52.9818 152.94 53.4349 153.07 53.9609C153.206 54.4818 153.273 55.0573 153.273 55.6875ZM151.023 55.8516V55.6875C151.023 55.3438 150.997 55.0208 150.945 54.7188C150.898 54.4115 150.815 54.1432 150.695 53.9141C150.576 53.6797 150.411 53.4948 150.203 53.3594C150 53.224 149.737 53.1562 149.414 53.1562C149.107 53.1562 148.846 53.2083 148.633 53.3125C148.419 53.4167 148.242 53.5625 148.102 53.75C147.966 53.9375 147.865 54.1615 147.797 54.4219C147.729 54.6771 147.688 54.9583 147.672 55.2656V56.2891C147.688 56.7005 147.755 57.0651 147.875 57.3828C148 57.6953 148.188 57.9427 148.438 58.125C148.693 58.3021 149.023 58.3906 149.43 58.3906C149.747 58.3906 150.01 58.3281 150.219 58.2031C150.427 58.0781 150.589 57.901 150.703 57.6719C150.823 57.4427 150.906 57.1745 150.953 56.8672C151 56.5547 151.023 56.2161 151.023 55.8516ZM159.234 58.0938V54.3281C159.234 54.0573 159.19 53.8255 159.102 53.6328C159.013 53.4349 158.875 53.2812 158.688 53.1719C158.505 53.0625 158.268 53.0078 157.977 53.0078C157.727 53.0078 157.51 53.0521 157.328 53.1406C157.146 53.224 157.005 53.3464 156.906 53.5078C156.807 53.6641 156.758 53.849 156.758 54.0625H154.508C154.508 53.7031 154.591 53.362 154.758 53.0391C154.924 52.7161 155.167 52.4323 155.484 52.1875C155.802 51.9375 156.18 51.7422 156.617 51.6016C157.06 51.4609 157.555 51.3906 158.102 51.3906C158.758 51.3906 159.341 51.5 159.852 51.7188C160.362 51.9375 160.763 52.2656 161.055 52.7031C161.352 53.1406 161.5 53.6875 161.5 54.3438V57.9609C161.5 58.4245 161.529 58.8047 161.586 59.1016C161.643 59.3932 161.727 59.6484 161.836 59.8672V60H159.562C159.453 59.7708 159.37 59.4844 159.312 59.1406C159.26 58.7917 159.234 58.4427 159.234 58.0938ZM159.531 54.8516L159.547 56.125H158.289C157.992 56.125 157.734 56.1589 157.516 56.2266C157.297 56.2943 157.117 56.3906 156.977 56.5156C156.836 56.6354 156.732 56.776 156.664 56.9375C156.602 57.099 156.57 57.276 156.57 57.4688C156.57 57.6615 156.615 57.8359 156.703 57.9922C156.792 58.1432 156.919 58.263 157.086 58.3516C157.253 58.4349 157.448 58.4766 157.672 58.4766C158.01 58.4766 158.305 58.4089 158.555 58.2734C158.805 58.138 158.997 57.9714 159.133 57.7734C159.273 57.5755 159.346 57.388 159.352 57.2109L159.945 58.1641C159.862 58.3776 159.747 58.599 159.602 58.8281C159.461 59.0573 159.281 59.2734 159.062 59.4766C158.844 59.6745 158.581 59.8385 158.273 59.9688C157.966 60.0938 157.602 60.1562 157.18 60.1562C156.643 60.1562 156.156 60.0495 155.719 59.8359C155.286 59.6172 154.943 59.3177 154.688 58.9375C154.438 58.5521 154.312 58.1146 154.312 57.625C154.312 57.1823 154.396 56.7891 154.562 56.4453C154.729 56.1016 154.974 55.8125 155.297 55.5781C155.625 55.3385 156.034 55.1589 156.523 55.0391C157.013 54.9141 157.581 54.8516 158.227 54.8516H159.531ZM165.484 47.9922V60H163.234V47.9922H165.484ZM170.812 51.5469L167.141 55.7344L165.172 57.7266L164.352 56.1016L165.914 54.1172L168.109 51.5469H170.812ZM168.477 60L165.977 56.0938L167.531 54.7344L171.07 60H168.477ZM175.516 60.1562C174.859 60.1562 174.271 60.0521 173.75 59.8438C173.229 59.6302 172.786 59.3359 172.422 58.9609C172.062 58.5859 171.786 58.151 171.594 57.6562C171.401 57.1562 171.305 56.625 171.305 56.0625V55.75C171.305 55.1094 171.396 54.5234 171.578 53.9922C171.76 53.4609 172.021 53 172.359 52.6094C172.703 52.2188 173.12 51.9193 173.609 51.7109C174.099 51.4974 174.651 51.3906 175.266 51.3906C175.865 51.3906 176.396 51.4896 176.859 51.6875C177.323 51.8854 177.711 52.1667 178.023 52.5312C178.341 52.8958 178.581 53.3333 178.742 53.8438C178.904 54.349 178.984 54.9115 178.984 55.5312V56.4688H172.266V54.9688H176.773V54.7969C176.773 54.4844 176.716 54.2057 176.602 53.9609C176.492 53.7109 176.326 53.513 176.102 53.3672C175.878 53.2214 175.591 53.1484 175.242 53.1484C174.945 53.1484 174.69 53.2135 174.477 53.3438C174.263 53.474 174.089 53.6562 173.953 53.8906C173.823 54.125 173.724 54.401 173.656 54.7188C173.594 55.0312 173.562 55.375 173.562 55.75V56.0625C173.562 56.401 173.609 56.7135 173.703 57C173.802 57.2865 173.94 57.5339 174.117 57.7422C174.299 57.9505 174.518 58.112 174.773 58.2266C175.034 58.3411 175.328 58.3984 175.656 58.3984C176.062 58.3984 176.44 58.3203 176.789 58.1641C177.143 58.0026 177.448 57.7604 177.703 57.4375L178.797 58.625C178.62 58.8802 178.378 59.125 178.07 59.3594C177.768 59.5938 177.404 59.7865 176.977 59.9375C176.549 60.0833 176.062 60.1562 175.516 60.1562ZM182.516 53.3906V60H180.266V51.5469H182.383L182.516 53.3906ZM185.062 51.4922L185.023 53.5781C184.914 53.5625 184.781 53.5495 184.625 53.5391C184.474 53.5234 184.336 53.5156 184.211 53.5156C183.893 53.5156 183.617 53.5573 183.383 53.6406C183.154 53.7188 182.961 53.8359 182.805 53.9922C182.654 54.1484 182.539 54.3385 182.461 54.5625C182.388 54.7865 182.346 55.0417 182.336 55.3281L181.883 55.1875C181.883 54.6406 181.938 54.138 182.047 53.6797C182.156 53.2161 182.315 52.8125 182.523 52.4688C182.737 52.125 182.997 51.8594 183.305 51.6719C183.612 51.4844 183.964 51.3906 184.359 51.3906C184.484 51.3906 184.612 51.401 184.742 51.4219C184.872 51.4375 184.979 51.4609 185.062 51.4922ZM188.773 59.0469L191.016 51.5469H193.43L190.031 61.2734C189.958 61.487 189.859 61.7161 189.734 61.9609C189.615 62.2057 189.451 62.4375 189.242 62.6562C189.039 62.8802 188.781 63.0625 188.469 63.2031C188.161 63.3438 187.784 63.4141 187.336 63.4141C187.122 63.4141 186.948 63.401 186.812 63.375C186.677 63.349 186.516 63.3125 186.328 63.2656V61.6172C186.385 61.6172 186.445 61.6172 186.508 61.6172C186.57 61.6224 186.63 61.625 186.688 61.625C186.984 61.625 187.227 61.5911 187.414 61.5234C187.602 61.4557 187.753 61.3516 187.867 61.2109C187.982 61.0755 188.073 60.8984 188.141 60.6797L188.773 59.0469ZM187.836 51.5469L189.672 57.6719L189.992 60.0547L188.461 60.2188L185.422 51.5469H187.836Z" fill="black"/>
<path d="M200.727 57.8125L202.484 51.5469H203.914L203.453 54.0078L201.695 60H200.5L200.727 57.8125ZM199.836 51.5469L201.094 57.8047L201.211 60H199.805L197.664 51.5469H199.836ZM205.523 57.7031L206.75 51.5469H208.93L206.789 60H205.391L205.523 57.7031ZM204.109 51.5469L205.859 57.7656L206.102 60H204.898L203.141 54.0156L202.695 51.5469H204.109ZM209.703 55.8594V55.6953C209.703 55.0755 209.792 54.5052 209.969 53.9844C210.146 53.4583 210.404 53.0026 210.742 52.6172C211.081 52.2318 211.497 51.9323 211.992 51.7188C212.487 51.5 213.055 51.3906 213.695 51.3906C214.336 51.3906 214.906 51.5 215.406 51.7188C215.906 51.9323 216.326 52.2318 216.664 52.6172C217.008 53.0026 217.268 53.4583 217.445 53.9844C217.622 54.5052 217.711 55.0755 217.711 55.6953V55.8594C217.711 56.474 217.622 57.0443 217.445 57.5703C217.268 58.0911 217.008 58.5469 216.664 58.9375C216.326 59.3229 215.909 59.6224 215.414 59.8359C214.919 60.0495 214.352 60.1562 213.711 60.1562C213.07 60.1562 212.5 60.0495 212 59.8359C211.505 59.6224 211.086 59.3229 210.742 58.9375C210.404 58.5469 210.146 58.0911 209.969 57.5703C209.792 57.0443 209.703 56.474 209.703 55.8594ZM211.953 55.6953V55.8594C211.953 56.2135 211.984 56.5443 212.047 56.8516C212.109 57.1589 212.208 57.4297 212.344 57.6641C212.484 57.8932 212.667 58.0729 212.891 58.2031C213.115 58.3333 213.388 58.3984 213.711 58.3984C214.023 58.3984 214.292 58.3333 214.516 58.2031C214.74 58.0729 214.919 57.8932 215.055 57.6641C215.19 57.4297 215.289 57.1589 215.352 56.8516C215.419 56.5443 215.453 56.2135 215.453 55.8594V55.6953C215.453 55.3516 215.419 55.0286 215.352 54.7266C215.289 54.4193 215.188 54.1484 215.047 53.9141C214.911 53.6745 214.732 53.487 214.508 53.3516C214.284 53.2161 214.013 53.1484 213.695 53.1484C213.378 53.1484 213.107 53.2161 212.883 53.3516C212.664 53.487 212.484 53.6745 212.344 53.9141C212.208 54.1484 212.109 54.4193 212.047 54.7266C211.984 55.0286 211.953 55.3516 211.953 55.6953ZM221.344 53.3906V60H219.094V51.5469H221.211L221.344 53.3906ZM223.891 51.4922L223.852 53.5781C223.742 53.5625 223.609 53.5495 223.453 53.5391C223.302 53.5234 223.164 53.5156 223.039 53.5156C222.721 53.5156 222.445 53.5573 222.211 53.6406C221.982 53.7188 221.789 53.8359 221.633 53.9922C221.482 54.1484 221.367 54.3385 221.289 54.5625C221.216 54.7865 221.174 55.0417 221.164 55.3281L220.711 55.1875C220.711 54.6406 220.766 54.138 220.875 53.6797C220.984 53.2161 221.143 52.8125 221.352 52.4688C221.565 52.125 221.826 51.8594 222.133 51.6719C222.44 51.4844 222.792 51.3906 223.188 51.3906C223.312 51.3906 223.44 51.401 223.57 51.4219C223.701 51.4375 223.807 51.4609 223.891 51.4922ZM229.484 51.5469V53.1406H224.562V51.5469H229.484ZM225.781 49.4609H228.031V57.4531C228.031 57.6979 228.062 57.8854 228.125 58.0156C228.193 58.1458 228.292 58.237 228.422 58.2891C228.552 58.3359 228.716 58.3594 228.914 58.3594C229.055 58.3594 229.18 58.3542 229.289 58.3438C229.404 58.3281 229.5 58.3125 229.578 58.2969L229.586 59.9531C229.393 60.0156 229.185 60.0651 228.961 60.1016C228.737 60.138 228.49 60.1562 228.219 60.1562C227.724 60.1562 227.292 60.0755 226.922 59.9141C226.557 59.7474 226.276 59.4818 226.078 59.1172C225.88 58.7526 225.781 58.2734 225.781 57.6797V49.4609ZM232.961 48V60H230.711V48H232.961ZM232.641 55.4766H232.023C232.029 54.888 232.107 54.3464 232.258 53.8516C232.409 53.3516 232.625 52.9193 232.906 52.5547C233.188 52.1849 233.523 51.8984 233.914 51.6953C234.31 51.4922 234.747 51.3906 235.227 51.3906C235.643 51.3906 236.021 51.4505 236.359 51.5703C236.703 51.6849 236.997 51.8724 237.242 52.1328C237.492 52.388 237.685 52.724 237.82 53.1406C237.956 53.5573 238.023 54.0625 238.023 54.6562V60H235.758V54.6406C235.758 54.2656 235.703 53.9714 235.594 53.7578C235.49 53.5391 235.336 53.3854 235.133 53.2969C234.935 53.2031 234.69 53.1562 234.398 53.1562C234.076 53.1562 233.799 53.2161 233.57 53.3359C233.346 53.4557 233.167 53.6224 233.031 53.8359C232.896 54.0443 232.797 54.2891 232.734 54.5703C232.672 54.8516 232.641 55.1536 232.641 55.4766ZM246.227 59.0469L248.469 51.5469H250.883L247.484 61.2734C247.411 61.487 247.312 61.7161 247.188 61.9609C247.068 62.2057 246.904 62.4375 246.695 62.6562C246.492 62.8802 246.234 63.0625 245.922 63.2031C245.615 63.3438 245.237 63.4141 244.789 63.4141C244.576 63.4141 244.401 63.401 244.266 63.375C244.13 63.349 243.969 63.3125 243.781 63.2656V61.6172C243.839 61.6172 243.898 61.6172 243.961 61.6172C244.023 61.6224 244.083 61.625 244.141 61.625C244.438 61.625 244.68 61.5911 244.867 61.5234C245.055 61.4557 245.206 61.3516 245.32 61.2109C245.435 61.0755 245.526 60.8984 245.594 60.6797L246.227 59.0469ZM245.289 51.5469L247.125 57.6719L247.445 60.0547L245.914 60.2188L242.875 51.5469H245.289ZM251.297 55.8594V55.6953C251.297 55.0755 251.385 54.5052 251.562 53.9844C251.74 53.4583 251.997 53.0026 252.336 52.6172C252.674 52.2318 253.091 51.9323 253.586 51.7188C254.081 51.5 254.648 51.3906 255.289 51.3906C255.93 51.3906 256.5 51.5 257 51.7188C257.5 51.9323 257.919 52.2318 258.258 52.6172C258.602 53.0026 258.862 53.4583 259.039 53.9844C259.216 54.5052 259.305 55.0755 259.305 55.6953V55.8594C259.305 56.474 259.216 57.0443 259.039 57.5703C258.862 58.0911 258.602 58.5469 258.258 58.9375C257.919 59.3229 257.503 59.6224 257.008 59.8359C256.513 60.0495 255.945 60.1562 255.305 60.1562C254.664 60.1562 254.094 60.0495 253.594 59.8359C253.099 59.6224 252.68 59.3229 252.336 58.9375C251.997 58.5469 251.74 58.0911 251.562 57.5703C251.385 57.0443 251.297 56.474 251.297 55.8594ZM253.547 55.6953V55.8594C253.547 56.2135 253.578 56.5443 253.641 56.8516C253.703 57.1589 253.802 57.4297 253.938 57.6641C254.078 57.8932 254.26 58.0729 254.484 58.2031C254.708 58.3333 254.982 58.3984 255.305 58.3984C255.617 58.3984 255.885 58.3333 256.109 58.2031C256.333 58.0729 256.513 57.8932 256.648 57.6641C256.784 57.4297 256.883 57.1589 256.945 56.8516C257.013 56.5443 257.047 56.2135 257.047 55.8594V55.6953C257.047 55.3516 257.013 55.0286 256.945 54.7266C256.883 54.4193 256.781 54.1484 256.641 53.9141C256.505 53.6745 256.326 53.487 256.102 53.3516C255.878 53.2161 255.607 53.1484 255.289 53.1484C254.971 53.1484 254.701 53.2161 254.477 53.3516C254.258 53.487 254.078 53.6745 253.938 53.9141C253.802 54.1484 253.703 54.4193 253.641 54.7266C253.578 55.0286 253.547 55.3516 253.547 55.6953ZM265.688 57.9766V51.5469H267.938V60H265.82L265.688 57.9766ZM265.938 56.2422L266.602 56.2266C266.602 56.7891 266.536 57.3125 266.406 57.7969C266.276 58.276 266.081 58.6927 265.82 59.0469C265.56 59.3958 265.232 59.6693 264.836 59.8672C264.44 60.0599 263.974 60.1562 263.438 60.1562C263.026 60.1562 262.646 60.099 262.297 59.9844C261.953 59.8646 261.656 59.6797 261.406 59.4297C261.161 59.1745 260.969 58.849 260.828 58.4531C260.693 58.0521 260.625 57.5703 260.625 57.0078V51.5469H262.875V57.0234C262.875 57.2734 262.904 57.4844 262.961 57.6562C263.023 57.8281 263.109 57.9688 263.219 58.0781C263.328 58.1875 263.456 58.2656 263.602 58.3125C263.753 58.3594 263.919 58.3828 264.102 58.3828C264.565 58.3828 264.93 58.2891 265.195 58.1016C265.466 57.9141 265.656 57.6589 265.766 57.3359C265.88 57.0078 265.938 56.6432 265.938 56.2422ZM271.906 53.3906V60H269.656V51.5469H271.773L271.906 53.3906ZM274.453 51.4922L274.414 53.5781C274.305 53.5625 274.172 53.5495 274.016 53.5391C273.865 53.5234 273.727 53.5156 273.602 53.5156C273.284 53.5156 273.008 53.5573 272.773 53.6406C272.544 53.7188 272.352 53.8359 272.195 53.9922C272.044 54.1484 271.93 54.3385 271.852 54.5625C271.779 54.7865 271.737 55.0417 271.727 55.3281L271.273 55.1875C271.273 54.6406 271.328 54.138 271.438 53.6797C271.547 53.2161 271.706 52.8125 271.914 52.4688C272.128 52.125 272.388 51.8594 272.695 51.6719C273.003 51.4844 273.354 51.3906 273.75 51.3906C273.875 51.3906 274.003 51.401 274.133 51.4219C274.263 51.4375 274.37 51.4609 274.453 51.4922ZM284.492 58.1562V48H286.758V60H284.719L284.492 58.1562ZM279.148 55.875V55.7109C279.148 55.0651 279.221 54.4792 279.367 53.9531C279.513 53.4219 279.727 52.9661 280.008 52.5859C280.289 52.2057 280.635 51.9115 281.047 51.7031C281.458 51.4948 281.927 51.3906 282.453 51.3906C282.948 51.3906 283.38 51.4948 283.75 51.7031C284.125 51.9115 284.443 52.2083 284.703 52.5938C284.969 52.974 285.182 53.4245 285.344 53.9453C285.505 54.4609 285.622 55.026 285.695 55.6406V56C285.622 56.5885 285.505 57.1354 285.344 57.6406C285.182 58.1458 284.969 58.5885 284.703 58.9688C284.443 59.3438 284.125 59.6354 283.75 59.8438C283.375 60.0521 282.938 60.1562 282.438 60.1562C281.911 60.1562 281.443 60.0495 281.031 59.8359C280.625 59.6224 280.281 59.3229 280 58.9375C279.724 58.5521 279.513 58.099 279.367 57.5781C279.221 57.0573 279.148 56.4896 279.148 55.875ZM281.398 55.7109V55.875C281.398 56.224 281.424 56.5495 281.477 56.8516C281.534 57.1536 281.625 57.4219 281.75 57.6562C281.88 57.8854 282.047 58.0651 282.25 58.1953C282.458 58.3203 282.711 58.3828 283.008 58.3828C283.393 58.3828 283.711 58.2969 283.961 58.125C284.211 57.9479 284.401 57.7057 284.531 57.3984C284.667 57.0911 284.745 56.737 284.766 56.3359V55.3125C284.75 54.9844 284.703 54.6901 284.625 54.4297C284.552 54.1641 284.443 53.9375 284.297 53.75C284.156 53.5625 283.979 53.4167 283.766 53.3125C283.557 53.2083 283.31 53.1562 283.023 53.1562C282.732 53.1562 282.482 53.224 282.273 53.3594C282.065 53.4896 281.896 53.6693 281.766 53.8984C281.641 54.1276 281.547 54.3984 281.484 54.7109C281.427 55.0182 281.398 55.3516 281.398 55.7109ZM288.156 55.8594V55.6953C288.156 55.0755 288.245 54.5052 288.422 53.9844C288.599 53.4583 288.857 53.0026 289.195 52.6172C289.534 52.2318 289.951 51.9323 290.445 51.7188C290.94 51.5 291.508 51.3906 292.148 51.3906C292.789 51.3906 293.359 51.5 293.859 51.7188C294.359 51.9323 294.779 52.2318 295.117 52.6172C295.461 53.0026 295.721 53.4583 295.898 53.9844C296.076 54.5052 296.164 55.0755 296.164 55.6953V55.8594C296.164 56.474 296.076 57.0443 295.898 57.5703C295.721 58.0911 295.461 58.5469 295.117 58.9375C294.779 59.3229 294.362 59.6224 293.867 59.8359C293.372 60.0495 292.805 60.1562 292.164 60.1562C291.523 60.1562 290.953 60.0495 290.453 59.8359C289.958 59.6224 289.539 59.3229 289.195 58.9375C288.857 58.5469 288.599 58.0911 288.422 57.5703C288.245 57.0443 288.156 56.474 288.156 55.8594ZM290.406 55.6953V55.8594C290.406 56.2135 290.438 56.5443 290.5 56.8516C290.562 57.1589 290.661 57.4297 290.797 57.6641C290.938 57.8932 291.12 58.0729 291.344 58.2031C291.568 58.3333 291.841 58.3984 292.164 58.3984C292.477 58.3984 292.745 58.3333 292.969 58.2031C293.193 58.0729 293.372 57.8932 293.508 57.6641C293.643 57.4297 293.742 57.1589 293.805 56.8516C293.872 56.5443 293.906 56.2135 293.906 55.8594V55.6953C293.906 55.3516 293.872 55.0286 293.805 54.7266C293.742 54.4193 293.641 54.1484 293.5 53.9141C293.365 53.6745 293.185 53.487 292.961 53.3516C292.737 53.2161 292.466 53.1484 292.148 53.1484C291.831 53.1484 291.56 53.2161 291.336 53.3516C291.117 53.487 290.938 53.6745 290.797 53.9141C290.661 54.1484 290.562 54.4193 290.5 54.7266C290.438 55.0286 290.406 55.3516 290.406 55.6953ZM302.547 57.9766V51.5469H304.797V60H302.68L302.547 57.9766ZM302.797 56.2422L303.461 56.2266C303.461 56.7891 303.396 57.3125 303.266 57.7969C303.135 58.276 302.94 58.6927 302.68 59.0469C302.419 59.3958 302.091 59.6693 301.695 59.8672C301.299 60.0599 300.833 60.1562 300.297 60.1562C299.885 60.1562 299.505 60.099 299.156 59.9844C298.812 59.8646 298.516 59.6797 298.266 59.4297C298.021 59.1745 297.828 58.849 297.688 58.4531C297.552 58.0521 297.484 57.5703 297.484 57.0078V51.5469H299.734V57.0234C299.734 57.2734 299.763 57.4844 299.82 57.6562C299.883 57.8281 299.969 57.9688 300.078 58.0781C300.188 58.1875 300.315 58.2656 300.461 58.3125C300.612 58.3594 300.779 58.3828 300.961 58.3828C301.424 58.3828 301.789 58.2891 302.055 58.1016C302.326 57.9141 302.516 57.6589 302.625 57.3359C302.74 57.0078 302.797 56.6432 302.797 56.2422ZM311.867 51.5469H313.906V59.7188C313.906 60.4896 313.734 61.1432 313.391 61.6797C313.052 62.2214 312.578 62.6302 311.969 62.9062C311.359 63.1875 310.651 63.3281 309.844 63.3281C309.49 63.3281 309.115 63.2812 308.719 63.1875C308.328 63.0938 307.953 62.9479 307.594 62.75C307.24 62.5521 306.943 62.3021 306.703 62L307.695 60.6719C307.956 60.974 308.258 61.2083 308.602 61.375C308.945 61.5469 309.326 61.6328 309.742 61.6328C310.148 61.6328 310.492 61.5573 310.773 61.4062C311.055 61.2604 311.271 61.0443 311.422 60.7578C311.573 60.4766 311.648 60.1354 311.648 59.7344V53.5L311.867 51.5469ZM306.18 55.875V55.7109C306.18 55.0651 306.258 54.4792 306.414 53.9531C306.576 53.4219 306.802 52.9661 307.094 52.5859C307.391 52.2057 307.75 51.9115 308.172 51.7031C308.594 51.4948 309.07 51.3906 309.602 51.3906C310.164 51.3906 310.635 51.4948 311.016 51.7031C311.396 51.9115 311.708 52.2083 311.953 52.5938C312.198 52.974 312.388 53.4245 312.523 53.9453C312.664 54.4609 312.773 55.026 312.852 55.6406V56C312.773 56.5885 312.656 57.1354 312.5 57.6406C312.344 58.1458 312.138 58.5885 311.883 58.9688C311.628 59.3438 311.31 59.6354 310.93 59.8438C310.555 60.0521 310.107 60.1562 309.586 60.1562C309.065 60.1562 308.594 60.0495 308.172 59.8359C307.755 59.6224 307.398 59.3229 307.102 58.9375C306.805 58.5521 306.576 58.099 306.414 57.5781C306.258 57.0573 306.18 56.4896 306.18 55.875ZM308.43 55.7109V55.875C308.43 56.224 308.464 56.5495 308.531 56.8516C308.599 57.1536 308.703 57.4219 308.844 57.6562C308.99 57.8854 309.169 58.0651 309.383 58.1953C309.602 58.3203 309.859 58.3828 310.156 58.3828C310.568 58.3828 310.904 58.2969 311.164 58.125C311.424 57.9479 311.62 57.7057 311.75 57.3984C311.88 57.0911 311.956 56.737 311.977 56.3359V55.3125C311.966 54.9844 311.922 54.6901 311.844 54.4297C311.766 54.1641 311.656 53.9375 311.516 53.75C311.375 53.5625 311.193 53.4167 310.969 53.3125C310.745 53.2083 310.479 53.1562 310.172 53.1562C309.875 53.1562 309.617 53.224 309.398 53.3594C309.185 53.4896 309.005 53.6693 308.859 53.8984C308.719 54.1276 308.612 54.3984 308.539 54.7109C308.466 55.0182 308.43 55.3516 308.43 55.7109ZM317.852 48V60H315.602V48H317.852ZM317.531 55.4766H316.914C316.919 54.888 316.997 54.3464 317.148 53.8516C317.299 53.3516 317.516 52.9193 317.797 52.5547C318.078 52.1849 318.414 51.8984 318.805 51.6953C319.201 51.4922 319.638 51.3906 320.117 51.3906C320.534 51.3906 320.911 51.4505 321.25 51.5703C321.594 51.6849 321.888 51.8724 322.133 52.1328C322.383 52.388 322.576 52.724 322.711 53.1406C322.846 53.5573 322.914 54.0625 322.914 54.6562V60H320.648V54.6406C320.648 54.2656 320.594 53.9714 320.484 53.7578C320.38 53.5391 320.227 53.3854 320.023 53.2969C319.826 53.2031 319.581 53.1562 319.289 53.1562C318.966 53.1562 318.69 53.2161 318.461 53.3359C318.237 53.4557 318.057 53.6224 317.922 53.8359C317.786 54.0443 317.688 54.2891 317.625 54.5703C317.562 54.8516 317.531 55.1536 317.531 55.4766Z" fill="#384960" fill-opacity="0.9"/>
<path d="M79.6 8H83.84L85.8 29.52H85.88L87.96 8H92.76L94.84 29.52H94.92L96.88 8H100.68L97.84 36H92.36L90.36 17.12H90.28L88.28 36H82.44L79.6 8ZM104.906 8H116.906V12H109.306V19.4H115.346V23.4H109.306V32H116.906V36H104.906V8ZM121.437 8H133.437V12H125.837V19.4H131.877V23.4H125.837V32H133.437V36H121.437V8ZM137.968 8H144.608C146.875 8 148.528 8.53333 149.568 9.6C150.608 10.64 151.128 12.2533 151.128 14.44V15.56C151.128 17 150.888 18.1733 150.408 19.08C149.955 19.9867 149.248 20.64 148.288 21.04V21.12C150.475 21.8667 151.568 23.8133 151.568 26.96V29.36C151.568 31.52 150.995 33.1733 149.848 34.32C148.728 35.44 147.075 36 144.888 36H137.968V8ZM144.088 19.4C144.968 19.4 145.621 19.1733 146.048 18.72C146.501 18.2667 146.728 17.5067 146.728 16.44V14.88C146.728 13.8667 146.541 13.1333 146.168 12.68C145.821 12.2267 145.261 12 144.488 12H142.368V19.4H144.088ZM144.888 32C145.661 32 146.235 31.8 146.608 31.4C146.981 30.9733 147.168 30.2533 147.168 29.24V26.8C147.168 25.52 146.941 24.64 146.488 24.16C146.061 23.6533 145.341 23.4 144.328 23.4H142.368V32H144.888ZM156.14 8H160.54V32H167.78V36H156.14V8ZM172.414 24.08L167.094 8H171.774L174.774 18.28H174.854L177.854 8H182.134L176.814 24.08V36H172.414V24.08ZM187.947 12.24H186.507V8H190.747V11.8L188.307 17.04H186.267L187.947 12.24ZM201.766 36.4C199.633 36.4 198.02 35.8 196.926 34.6C195.833 33.3733 195.286 31.6267 195.286 29.36V27.76H199.446V29.68C199.446 31.4933 200.206 32.4 201.726 32.4C202.473 32.4 203.033 32.1867 203.406 31.76C203.806 31.3067 204.006 30.5867 204.006 29.6C204.006 28.4267 203.74 27.4 203.206 26.52C202.673 25.6133 201.686 24.5333 200.246 23.28C198.433 21.68 197.166 20.24 196.446 18.96C195.726 17.6533 195.366 16.1867 195.366 14.56C195.366 12.3467 195.926 10.64 197.046 9.44C198.166 8.21333 199.793 7.6 201.926 7.6C204.033 7.6 205.62 8.21333 206.686 9.44C207.78 10.64 208.326 12.3733 208.326 14.64V15.8H204.166V14.36C204.166 13.4 203.98 12.7067 203.606 12.28C203.233 11.8267 202.686 11.6 201.966 11.6C200.5 11.6 199.766 12.4933 199.766 14.28C199.766 15.2933 200.033 16.24 200.566 17.12C201.126 18 202.126 19.0667 203.566 20.32C205.406 21.92 206.673 23.3733 207.366 24.68C208.06 25.9867 208.406 27.52 208.406 29.28C208.406 31.5733 207.833 33.3333 206.686 34.56C205.566 35.7867 203.926 36.4 201.766 36.4Z" fill="#384960" fill-opacity="0.9"/>
<path d="M221.335 8H227.975C230.242 8 231.895 8.53333 232.935 9.6C233.975 10.64 234.495 12.2533 234.495 14.44V15.56C234.495 17 234.255 18.1733 233.775 19.08C233.322 19.9867 232.615 20.64 231.655 21.04V21.12C233.842 21.8667 234.935 23.8133 234.935 26.96V29.36C234.935 31.52 234.362 33.1733 233.215 34.32C232.095 35.44 230.442 36 228.255 36H221.335V8ZM227.455 19.4C228.335 19.4 228.989 19.1733 229.415 18.72C229.869 18.2667 230.095 17.5067 230.095 16.44V14.88C230.095 13.8667 229.909 13.1333 229.535 12.68C229.189 12.2267 228.629 12 227.855 12H225.735V19.4H227.455ZM228.255 32C229.029 32 229.602 31.8 229.975 31.4C230.349 30.9733 230.535 30.2533 230.535 29.24V26.8C230.535 25.52 230.309 24.64 229.855 24.16C229.429 23.6533 228.709 23.4 227.695 23.4H225.735V32H228.255ZM242.907 8H248.867L253.427 36H249.027L248.227 30.44V30.52H243.227L242.427 36H238.347L242.907 8ZM247.707 26.72L245.747 12.88H245.667L243.747 26.72H247.707ZM257.562 8H261.962V19.8L267.562 8H271.962L266.722 18.28L272.042 36H267.442L263.722 23.52L261.962 27.08V36H257.562V8ZM276.124 8H288.124V12H280.524V19.4H286.564V23.4H280.524V32H288.124V36H276.124V8ZM292.656 8H299.176C301.442 8 303.096 8.53333 304.136 9.6C305.176 10.64 305.696 12.2533 305.696 14.44V16.16C305.696 19.0667 304.736 20.9067 302.816 21.68V21.76C303.882 22.08 304.629 22.7333 305.056 23.72C305.509 24.7067 305.736 26.0267 305.736 27.68V32.6C305.736 33.4 305.762 34.0533 305.816 34.56C305.869 35.04 306.002 35.52 306.216 36H301.736C301.576 35.5467 301.469 35.12 301.416 34.72C301.362 34.32 301.336 33.6 301.336 32.56V27.44C301.336 26.16 301.122 25.2667 300.696 24.76C300.296 24.2533 299.589 24 298.576 24H297.056V36H292.656V8ZM298.656 20C299.536 20 300.189 19.7733 300.616 19.32C301.069 18.8667 301.296 18.1067 301.296 17.04V14.88C301.296 13.8667 301.109 13.1333 300.736 12.68C300.389 12.2267 299.829 12 299.056 12H297.056V20H298.656ZM314.203 24.08L308.883 8H313.563L316.563 18.28H316.643L319.643 8H323.923L318.603 24.08V36H314.203V24.08Z" fill="black"/>
<path d="M0 8H6.34237L9.27422 40.28H9.39389L12.5052 8H19.6853L22.7966 40.28H22.9163L25.8482 8H31.5324L27.2842 50H19.0869L16.0953 21.68H15.9756L12.9839 50H4.24819L0 8Z" fill="#384960" fill-opacity="0.9"/>
<path d="M38.6565 18H48.5889C51.9795 18 54.4526 18.8 56.0083 20.4C57.564 21.96 58.3418 24.38 58.3418 27.66V29.34C58.3418 31.5 57.9828 33.26 57.2648 34.62C56.5867 35.98 55.5296 36.96 54.0936 37.56V37.68C57.3645 38.8 59 41.72 59 46.44V50.04C59 53.28 58.1424 55.76 56.4272 57.48C54.7518 59.16 52.2787 60 49.0078 60H38.6565V18ZM47.8111 35.1C49.1274 35.1 50.1047 34.76 50.743 34.08C51.4211 33.4 51.7601 32.26 51.7601 30.66V28.32C51.7601 26.8 51.4809 25.7 50.9225 25.02C50.4039 24.34 49.5662 24 48.4094 24H45.2383V35.1H47.8111ZM49.0078 54C50.1646 54 51.0222 53.7 51.5806 53.1C52.1391 52.46 52.4183 51.38 52.4183 49.86V46.2C52.4183 44.28 52.0792 42.96 51.4011 42.24C50.7629 41.48 49.6859 41.1 48.1701 41.1H45.2383V54H49.0078Z" fill="black"/>
</svg>
